Coordinates
version=1
nRows=10
nColumns=40
inDegrees=yes

Units are S.I. units (second, meters, Newtons, ...)
Angles are in degrees.

endheader
time	pelvis_tilt	pelvis_list	pelvis_rotation	pelvis_tx	pelvis_ty	pelvis_tz	hip_flexion_r	hip_adduction_r	hip_rotation_r	knee_angle_r	knee_angle_r_beta	ankle_angle_r	subtalar_angle_r	mtp_angle_r	hip_flexion_l	hip_adduction_l	hip_rotation_l	knee_angle_l	knee_angle_l_beta	ankle_angle_l	subtalar_angle_l	mtp_angle_l	lumbar_extension	lumbar_bending	lumbar_rotation	arm_flex_r	arm_add_r	arm_rot_r	elbow_flex_r	pro_sup_r	wrist_flex_r	wrist_dev_r	arm_flex_l	arm_add_l	arm_rot_l	elbow_flex_l	pro_sup_l	wrist_flex_l	wrist_dev_l
     16.77000000	     -3.22632728	     -5.64984320	     -1.55775648	      0.79662022	      0.93632594	      0.41123848	     29.68164263	     -4.50220860	     -7.47937298	     53.22911582	     53.22911582	      7.52270165	    -17.90697389	      7.06019223	     11.36276553	     -4.42632100	     -7.20667223	     19.37202828	     19.37202828	     13.53445784	    -10.79494002	     -1.01057252	     -9.82536878	      5.66113015	      2.38178510	     -3.66938952	    -11.78337990	    -20.89014547	     17.83562343	     39.87267880	      0.00000000	      0.00000000	     18.84777392	    -15.21136486	     -5.80129576	     50.86601229	     38.52211539	      0.00000000	      0.00000000
     16.78285714	     -3.32853756	     -5.72719541	     -1.83079484	      0.79579953	      0.93627994	      0.41155974	     29.82658411	     -4.25317485	     -7.84570401	     50.15898752	     50.15898752	      7.00871909	    -17.62099748	      5.10966619	     10.86671751	     -4.57495738	     -7.64893841	     19.10633350	     19.10633350	     13.63915926	    -10.44618410	     -1.60437794	     -9.75942362	      5.76257763	      2.07602261	     -5.00258113	    -12.18827361	    -20.12302671	     17.72300546	     40.51645308	      0.00000000	      0.00000000	     18.84860050	    -15.76025629	     -6.50504071	     53.26316215	     39.30665874	      0.00000000	      0.00000000
     16.79571429	     -3.50785582	     -5.78486852	     -2.07039427	      0.79494487	      0.93611657	      0.41185099	     29.97429800	     -3.97135186	     -8.17434971	     47.00701649	     47.00701649	      7.07697932	    -16.91813294	      5.19118909	     10.45375255	     -4.64548290	     -7.83326801	     18.80794817	     18.80794817	     13.84358957	    -10.36183182	     -1.63963107	     -9.54775217	      5.87993105	      2.01139914	     -6.37355438	    -12.53690135	    -20.12752175	     17.32504538	     40.59176300	      0.00000000	      0.00000000	     19.55129904	    -16.15429520	     -6.75916252	     54.10659519	     39.40288665	      0.00000000	      0.00000000
     16.80857143	     -3.53771119	     -5.83018618	     -2.35105036	      0.79418227	      0.93614257	      0.41226427	     29.80726812	     -3.65926315	     -8.50513498	     43.61894014	     43.61894014	      6.90169125	    -16.01074368	      4.96725569	      9.84306458	     -4.72669130	     -8.18910458	     18.48122444	     18.48122444	     14.05800900	    -10.12971690	     -1.72980505	     -9.58340376	      5.94179973	      2.20048084	     -7.85665876	    -12.90953022	    -20.14753444	     17.09290145	     40.68569474	      0.00000000	      0.00000000	     20.16692135	    -16.31534997	     -7.08879614	     55.59543574	     39.53287710	      0.00000000	      0.00000000
     16.82142857	     -3.58351351	     -5.85020360	     -2.63817364	      0.79348307	      0.93609951	      0.41276303	     29.54351099	     -3.33570786	     -8.82108159	     40.09830947	     40.09830947	      6.58218792	    -14.78518527	      4.41306282	      9.24130457	     -4.78782919	     -8.61003121	     18.13486454	     18.13486454	     14.26730391	     -9.75789791	     -1.89170496	     -9.56510459	      5.95877125	      2.35251007	     -9.33083130	    -13.20151466	    -20.19685274	     17.16745218	     40.79358027	      0.00000000	      0.00000000	     20.58631188	    -16.59800997	     -7.54689594	     57.48974720	     39.70119342	      0.00000000	      0.00000000
     16.83428571	     -3.73313048	     -5.79776565	     -2.96258043	      0.79281445	      0.93572517	      0.41349671	     29.31217623	     -3.05765631	     -9.16888903	     36.46525764	     36.46525764	      5.38450717	    -13.58615094	      1.56397079	      8.75100992	     -4.82183933	     -9.23219742	     17.79195944	     17.79195944	     14.47262656	     -9.14183239	     -2.36626269	     -9.51461154	      5.87268372	      1.98074336	    -10.82788762	    -13.40904154	    -20.19934930	     18.61890585	     41.11956959	      0.00000000	      0.00000000	     19.87749732	    -17.15495807	     -8.72607537	     61.28358492	     40.23365246	      0.00000000	      0.00000000
     16.84714286	     -3.85747050	     -5.82700419	     -3.22503042	      0.79207117	      0.93556069	      0.41433330	     29.03320099	     -2.65290495	     -9.50739638	     32.94658279	     32.94658279	      4.94335746	    -11.88059907	      1.78374831	      8.24403583	     -4.87915854	     -9.49426086	     17.42225850	     17.42225850	     14.58549607	     -9.05665353	     -2.40467073	     -9.41902106	      5.89977987	      1.94050063	    -11.79765036	    -13.64614831	    -20.17619598	     18.38928259	     41.19286317	      0.00000000	      0.00000000	     20.36940621	    -17.45828366	     -9.00712453	     62.00113565	     40.33986957	      0.00000000	      0.00000000
     16.86000000	     -3.95499689	     -5.79763626	     -3.53345787	      0.79151662	      0.93529495	      0.41527581	     28.73647731	     -2.30663387	     -9.82694086	     29.59346531	     29.59346531	      4.52537474	     -9.74638793	      1.93999658	      7.63379240	     -4.87593518	     -9.85774904	     16.96037623	     16.96037623	     14.77159854	     -8.80312548	     -2.55019650	     -9.28849178	      5.87461451	      2.01479099	    -12.73444860	    -13.79630762	    -20.18471893	     18.35710582	     41.26031490	      0.00000000	      0.00000000	     20.74058031	    -17.66395675	     -9.34171020	     63.05855388	     40.45304027	      0.00000000	      0.00000000
     16.87285714	     -3.99826667	     -5.73664450	     -3.84315290	      0.79105537	      0.93503700	      0.41636965	     28.38711445	     -2.00961416	    -10.24449148	     26.41349188	     26.41349188	      4.00843788	     -7.32180640	      2.10984549	      6.94815639	     -4.84410836	    -10.29679198	     16.47220690	     16.47220690	     14.94565573	     -8.46456883	     -2.77307464	     -9.24792258	      5.78811748	      2.08358556	    -13.59467118	    -13.91823654	    -20.22135363	     18.55738852	     41.32880896	      0.00000000	      0.00000000	     20.94980763	    -17.85687978	     -9.75192815	     64.32334876	     40.58301979	      0.00000000	      0.00000000
     16.88571429	     -3.98873042	     -5.61621198	     -4.16716967	      0.79067033	      0.93477254	      0.41762663	     28.01295782	     -1.80925203	    -10.80792956	     23.48244242	     23.48244242	      3.42575829	     -4.49426101	      2.16699695	      6.15647334	     -4.75756843	    -10.85572256	     15.90566952	     15.90566952	     15.04933679	     -7.96576185	     -3.17695147	     -9.30142650	      5.60332867	      2.06903359	    -14.35880622	    -13.91751829	    -20.26143821	     19.28800167	     41.43772999	      0.00000000	      0.00000000	     20.83507905	    -18.03688990	    -10.42724148	     66.12987063	     40.80739562	      0.00000000	      0.00000000
